<?xml version="1.0" standalone="no"?>
<!DOCTYPE svg PUBLIC "-//W3C//DTD SVG 20010904//EN"
 "http://www.w3.org/TR/2001/REC-SVG-20010904/DTD/svg10.dtd">
<svg version="1.0" xmlns="http://www.w3.org/2000/svg"
 width="1950.000000pt" height="1950.000000pt" viewBox="0 0 1950.000000 1950.000000"
 preserveAspectRatio="xMidYMid meet">
<metadata>
Created by potrace 1.11, written by Peter Selinger 2001-2013
</metadata>
<g transform="translate(0.000000,1950.000000) scale(0.100000,-0.100000)"
fill="#000000" stroke="none">
<path d="M9928 19486 c-1 -2 -111 -7 -243 -10 -132 -4 -256 -9 -275 -11 -19
-2 -78 -7 -130 -10 -52 -4 -108 -8 -125 -10 -16 -3 -55 -7 -85 -10 -30 -4 -68
-8 -85 -10 -16 -2 -70 -9 -120 -15 -49 -6 -101 -13 -115 -16 -28 -5 -76 -12
-130 -20 -19 -2 -60 -9 -90 -14 -30 -6 -68 -13 -85 -15 -136 -24 -559 -118
-605 -136 -14 -5 -34 -11 -45 -13 -176 -35 -771 -241 -1010 -351 -16 -7 -61
-28 -100 -45 -94 -43 -325 -160 -403 -204 -35 -20 -66 -36 -67 -36 -5 0 -184
-112 -255 -159 -135 -90 -323 -232 -469 -355 -164 -138 -490 -463 -591 -591
-17 -22 -35 -42 -38 -45 -39 -29 -255 -328 -354 -490 -72 -116 -202 -360 -192
-360 4 0 2 -6 -4 -12 -22 -27 -131 -335 -146 -414 -2 -10 -12 -48 -21 -84 -9
-36 -19 -76 -21 -90 -3 -14 -7 -34 -9 -45 -22 -114 -33 -187 -49 -325 -24
-204 -25 -652 -2 -850 3 -19 7 -59 10 -88 9 -82 26 -198 42 -287 3 -16 8 -43
10 -60 30 -185 130 -576 204 -795 59 -172 94 -269 138 -380 354 -886 883
-1718 1507 -2369 50 -51 89 -98 87 -104 -2 -5 -44 -76 -94 -156 -347 -555
-758 -1236 -758 -1256 0 -2 -13 -26 -28 -52 -69 -117 -352 -670 -352 -687 0
-3 -13 -33 -29 -68 -48 -105 -71 -157 -88 -201 -9 -23 -20 -46 -25 -51 -4 -6
-8 -16 -8 -23 0 -7 -12 -38 -26 -70 -14 -32 -30 -67 -35 -78 -17 -40 -97 -252
-128 -340 -18 -49 -37 -99 -42 -110 -11 -24 -167 -497 -174 -528 -2 -12 -16
-60 -30 -107 -27 -88 -113 -416 -121 -460 -3 -14 -11 -50 -19 -81 -14 -53 -68
-315 -80 -389 -3 -19 -8 -42 -10 -50 -2 -8 -6 -32 -9 -52 -3 -21 -9 -55 -12
-75 -10 -71 -13 -88 -28 -198 -17 -120 -17 -125 -41 -360 -21 -202 -27 -751
-12 -970 20 -290 70 -629 127 -855 95 -379 183 -625 335 -935 161 -328 375
-649 614 -920 92 -104 370 -373 471 -456 123 -101 365 -279 379 -279 5 0 11
-3 13 -7 8 -20 299 -189 478 -278 233 -117 444 -203 705 -288 124 -40 304 -92
353 -102 9 -1 44 -10 77 -19 33 -8 76 -18 95 -21 19 -3 42 -8 50 -10 8 -2 26
-6 40 -9 29 -5 96 -17 125 -22 35 -7 208 -33 255 -38 25 -3 61 -8 80 -11 85
-11 225 -23 360 -31 85 -4 516 -4 600 1 220 12 432 34 595 61 117 19 283 50
416 79 245 52 704 202 936 306 26 12 64 28 83 36 54 24 300 147 365 183 96 53
329 197 360 222 5 4 64 47 130 94 333 240 765 639 1070 989 33 38 69 79 80 91
11 12 27 31 35 41 64 79 106 129 110 133 11 9 196 253 262 346 67 93 173 249
246 364 23 36 46 70 52 77 5 7 10 14 10 17 0 2 22 40 48 83 27 43 62 101 77
128 16 28 46 82 68 120 72 128 109 198 202 385 86 171 165 337 165 345 0 2 16
38 36 82 52 113 48 106 109 258 31 77 60 149 64 160 16 38 69 180 76 205 4 14
13 39 21 55 21 48 140 412 199 609 86 290 147 521 206 781 11 50 22 97 24 105
30 127 118 569 140 700 3 19 10 60 15 90 5 30 12 71 15 90 3 19 10 60 15 90 5
30 12 75 15 100 3 25 10 70 15 100 5 30 12 74 15 98 10 83 16 127 20 152 2 14
6 48 10 75 3 28 7 66 10 85 2 19 7 60 10 90 3 30 8 66 10 80 2 14 7 48 9 75 3
28 10 88 15 135 6 47 13 114 16 150 10 102 14 141 20 200 9 91 13 131 20 215
3 44 8 91 10 105 3 14 7 66 11 115 6 96 9 130 18 240 3 39 8 104 11 145 2 41
7 113 10 160 9 126 13 191 20 330 3 69 8 157 10 196 38 675 33 1700 -10 2369
-2 33 -7 105 -10 160 -3 55 -7 116 -10 135 -2 19 -7 69 -10 110 -3 41 -8 93
-10 115 -2 22 -7 69 -10 105 -5 61 -8 91 -20 200 -19 166 -47 384 -61 473 -25
160 -55 347 -59 370 -3 15 -7 38 -9 52 -3 14 -10 52 -16 85 -6 33 -13 70 -15
82 -17 96 -39 201 -87 408 -49 216 -46 205 -48 205 -1 0 -3 9 -5 20 -20 106
-156 564 -240 805 -189 541 -454 1089 -719 1485 -14 22 -31 47 -36 55 -62 94
-320 442 -350 470 -3 3 -39 43 -80 90 -180 203 -368 372 -614 554 -132 98
-263 189 -318 221 -9 6 -43 26 -75 45 -315 187 -684 344 -1063 452 -233 66
-534 129 -750 158 -47 6 -96 13 -110 15 -14 2 -52 7 -85 10 -33 3 -71 8 -85
10 -14 2 -63 7 -110 11 -47 3 -103 8 -125 9 -22 2 -139 6 -260 10 -121 3 -225
8 -232 10 -6 2 -13 2 -15 1z m-1755 -11584 c31 -45 57 -86 57 -91 0 -5 4 -11
8 -13 8 -3 187 -283 230 -359 11 -19 54 -95 97 -169 447 -776 782 -1666 871
-2310 38 -273 27 -565 -27 -745 -26 -89 -56 -169 -89 -242 -208 -450 -664
-762 -1185 -810 -120 -11 -293 -5 -375 12 -14 3 -41 8 -59 11 -65 9 -276 85
-360 130 -314 167 -550 444 -685 807 -40 106 -93 303 -102 375 -3 25 -7 48 -9
51 -8 15 -19 201 -19 341 0 133 9 295 19 349 1 9 6 41 10 71 4 30 13 85 21
122 7 37 16 82 19 100 3 18 8 41 11 50 3 9 7 25 9 35 24 114 103 368 175 563
197 532 577 1235 1050 1941 l84 126 96 -131 c53 -72 122 -168 153 -214z"/>
</g>
</svg>
